<svg width="100" height="100" viewBox="0 0 100 100" fill="none" xmlns="http://www.w3.org/2000/svg">
<path d="M50 100C77.6142 100 100 77.6142 100 50C100 22.3858 77.6142 0 50 0C22.3858 0 0 22.3858 0 50C0 77.6142 22.3858 100 50 100Z" fill="#FFC200"/>
<path fill-rule="evenodd" clip-rule="evenodd" d="M40.228 64.1181L60.1326 64.3058V84.1909L40.228 84.0032V64.1181Z" fill="#F9DCA4"/>
<path opacity="0.11" fill-rule="evenodd" clip-rule="evenodd" d="M60.1358 64.2702V69.7816C60.1568 70.4112 60.1358 71.0415 60.0727 71.6683C59.9869 72.3398 57.9465 71.5647 57.7038 72.2961C50.6762 77.9984 41.1293 71.0987 40.228 66.822L60.1358 64.2702Z" fill="black"/>
<path fill-rule="evenodd" clip-rule="evenodd" d="M50.0567 17.5566C82.8156 17.5566 70.0487 71.843 50.0567 71.843C31.1732 71.843 17.2978 17.5566 50.0567 17.5566Z" fill="#FFE8BE"/>
<path fill-rule="evenodd" clip-rule="evenodd" d="M30.4452 41.8026C25.8885 43.7913 29.7623 53.2104 32.6296 53.1683C31.4406 49.483 30.707 45.6661 30.4452 41.8026ZM70.0795 41.7573C74.6345 43.7443 70.8076 53.2104 67.9435 53.1683C69.1171 49.4657 69.8344 45.6337 70.0795 41.7573Z" fill="#F9DCA4"/>
<path fill-rule="evenodd" clip-rule="evenodd" d="M50.0325 17.9175C63.4597 17.9175 69.0859 27.4644 69.4305 38.4935C69.903 53.5939 60.6959 71.4822 50.0341 71.4822C39.937 71.4822 30.4758 52.9822 31.0503 37.7282C31.4516 27.0243 36.9208 17.9191 50.0341 17.9191L50.0325 17.9175Z" fill="#FFE8BE"/>
<path fill-rule="evenodd" clip-rule="evenodd" d="M31.6717 48.877C31.6717 48.877 32.0229 34.9903 44.5034 34.4628C56.984 33.9353 59.6216 27.2556 59.6216 27.2556C62.2122 32.7015 65.7717 37.6307 70.1264 41.8026C79.5213 24.1327 62.0844 15.301 62.0844 15.301C62.0844 15.301 62.4646 5.03073 49.7785 5.19416C37.0924 5.35759 39.23 16.0032 39.23 16.0032C39.23 16.0032 20.0682 26.3754 31.6717 48.877Z" fill="#969696"/>
<path fill-rule="evenodd" clip-rule="evenodd" d="M85.4323 85.2767C84.6492 83.4612 82.5407 79.0453 80.866 77.9951C73.7495 73.5356 67.7818 72.89 60.133 69.4191C60.5181 86.9175 40.6265 86.6877 40.2268 68.9434C32.1783 72.5582 24.7462 74.5469 17.2042 79.1262C15.6702 80.0583 14.764 83.1311 14.1055 84.8026C18.7272 89.5704 24.2524 93.3697 30.3586 95.9787C36.4647 98.5877 43.0294 99.9542 49.6695 99.9983C56.3095 100.042 62.8918 98.7634 69.0321 96.2358C75.1724 93.7081 80.7476 89.9826 85.4323 85.2767Z" fill="#434955"/>
<path fill-rule="evenodd" clip-rule="evenodd" d="M40.2037 68.9547L50.283 82.3981C43.9238 94.178 31.2458 91.2815 28.3833 73.1553C35.3542 70.5016 40.2037 68.9547 40.2037 68.9547Z" fill="white"/>
<path fill-rule="evenodd" clip-rule="evenodd" d="M33.6456 43.6181H47.9143C48.1 43.618 48.2785 43.6906 48.4115 43.8203C48.5445 43.95 48.6216 44.1266 48.6262 44.3123C48.6617 44.7478 48.6665 45.1852 48.6408 45.6213H51.3592C51.3337 45.1846 51.3386 44.7467 51.3738 44.3107C51.3789 44.1252 51.4561 43.9491 51.5891 43.8197C51.7221 43.6904 51.9003 43.618 52.0858 43.6181H66.3544C66.4479 43.6181 66.5405 43.6365 66.6268 43.6723C66.7132 43.7081 66.7917 43.7605 66.8578 43.8266C66.9239 43.8927 66.9764 43.9712 67.0122 44.0576C67.0479 44.144 67.0664 44.2366 67.0664 44.3301C67.0664 44.3527 67.1796 52.6715 58.8269 52.6715C54.034 52.6715 52.2832 49.9563 51.6651 47.61H48.3334C47.7152 49.9563 45.9644 52.6715 41.1699 52.6715C32.8188 52.6715 32.9337 44.3543 32.9337 44.3301C32.9337 44.1415 33.0085 43.9607 33.1416 43.8272C33.2748 43.6937 33.4571 43.6185 33.6456 43.6181Z" fill="#E6E6E6"/>
<path fill-rule="evenodd" clip-rule="evenodd" d="M60.1745 68.9547L50.2393 82.3981C56.5046 94.178 69.0014 91.2815 71.825 73.1553C64.9528 70.5016 60.1745 68.9547 60.1745 68.9547Z" fill="white"/>
<path fill-rule="evenodd" clip-rule="evenodd" d="M33.6456 43.6181H47.9143C48.1 43.618 48.2785 43.6906 48.4115 43.8203C48.5445 43.95 48.6216 44.1266 48.6262 44.3123C48.6617 44.7478 48.6665 45.1852 48.6408 45.6213H51.3592C51.3337 45.1846 51.3386 44.7467 51.3738 44.3107C51.3789 44.1252 51.4561 43.9491 51.5891 43.8197C51.7221 43.6904 51.9003 43.618 52.0858 43.6181H66.3544C66.4479 43.6181 66.5405 43.6365 66.6268 43.6723C66.7132 43.7081 66.7917 43.7605 66.8578 43.8266C66.9239 43.8927 66.9764 43.9712 67.0122 44.0576C67.0479 44.144 67.0664 44.2366 67.0664 44.3301C67.0664 44.3527 67.1796 52.6715 58.8269 52.6715C54.034 52.6715 52.2832 49.9563 51.6651 47.61H48.3334C47.7152 49.9563 45.9644 52.6715 41.1699 52.6715C32.8188 52.6715 32.9337 44.3543 32.9337 44.3301C32.9337 44.1415 33.0085 43.9607 33.1416 43.8272C33.2748 43.6937 33.4571 43.6185 33.6456 43.6181ZM65.5987 45.0421H52.7605C52.6787 45.8654 52.7783 46.6968 53.0522 47.4775C53.3262 48.2583 53.768 48.9696 54.3464 49.5613C54.9248 50.153 55.6259 50.6107 56.4002 50.9023C57.1746 51.1939 58.0035 51.3123 58.8285 51.2492C59.6826 51.2942 60.5371 51.1685 61.3421 50.8794C62.147 50.5904 62.8863 50.1437 63.5166 49.5657C64.147 48.9876 64.6558 48.2897 65.0133 47.5127C65.3708 46.7357 65.5698 45.8952 65.5987 45.0404V45.0421ZM47.2379 45.0421H34.4013C34.4304 45.8967 34.6296 46.737 34.9872 47.5138C35.3448 48.2906 35.8536 48.9883 36.484 49.5662C37.1143 50.1441 37.8535 50.5906 38.6583 50.8796C39.4632 51.1685 40.3176 51.2942 41.1715 51.2492C41.9967 51.3124 42.8257 51.1939 43.6002 50.9022C44.3747 50.6105 45.0759 50.1526 45.6543 49.5607C46.2328 48.9689 46.6745 48.2574 46.9483 47.4764C47.2222 46.6955 47.3216 45.864 47.2395 45.0404L47.2379 45.0421Z" fill="#434955"/>
<path d="M50.2267 91.4353C50.9765 91.4353 51.5844 90.8275 51.5844 90.0777C51.5844 89.3279 50.9765 88.7201 50.2267 88.7201C49.477 88.7201 48.8691 89.3279 48.8691 90.0777C48.8691 90.8275 49.477 91.4353 50.2267 91.4353Z" fill="#E6E6E6"/>
<path d="M50.2267 96.4822C50.9765 96.4822 51.5844 95.8744 51.5844 95.1246C51.5844 94.3748 50.9765 93.767 50.2267 93.767C49.477 93.767 48.8691 94.3748 48.8691 95.1246C48.8691 95.8744 49.477 96.4822 50.2267 96.4822Z" fill="#E6E6E6"/>
</svg>
