<svg width="40" height="40" viewBox="0 0 40 40" fill="none" xmlns="http://www.w3.org/2000/svg">
<rect width="40" height="40" rx="5" fill="#9A85FB"/>
<g clip-path="url(#clip0_2_883)">
<path d="M21.3333 8H18.6667V21.3333H21.3333V8ZM27.7733 10.8933L25.88 12.7867C27.9867 14.48 29.3333 17.08 29.3333 20C29.3333 25.16 25.16 29.3333 20 29.3333C14.84 29.3333 10.6667 25.16 10.6667 20C10.6667 17.08 12.0133 14.48 14.1067 12.7733L12.2267 10.8933C9.64 13.0933 8 16.3467 8 20C8 26.6267 13.3733 32 20 32C26.6267 32 32 26.6267 32 20C32 16.3467 30.36 13.0933 27.7733 10.8933Z" fill="#F3F3F3"/>
</g>
<defs>
<clipPath id="clip0_2_883">
<rect width="32" height="32" fill="white" transform="translate(4 4)"/>
</clipPath>
</defs>
</svg>
