<svg width="100" height="100" viewBox="0 0 100 100" fill="none" xmlns="http://www.w3.org/2000/svg">
<path d="M50 99.9527C77.6142 99.9527 100 77.5776 100 49.9764C100 22.3752 77.6142 0 50 0C22.3858 0 0 22.3752 0 49.9764C0 77.5776 22.3858 99.9527 50 99.9527Z" fill="#3DBC93"/>
<path fill-rule="evenodd" clip-rule="evenodd" d="M37.6294 62.5596L63.369 62.7553V83.6484L37.6294 83.4527V62.5596Z" fill="#F9DCA4"/>
<path opacity="0.11" fill-rule="evenodd" clip-rule="evenodd" d="M63.3739 62.7181V68.5083C63.3696 69.1476 63.3166 69.7856 63.2153 70.4168C63.0879 71.1957 62.8735 71.958 62.5762 72.6892C53.8803 79.4239 40.0211 73.899 37.8091 62.3947L63.3739 62.7181Z" fill="black"/>
<path fill-rule="evenodd" clip-rule="evenodd" d="M50.3706 13.6376C84.806 13.6376 71.3853 70.6755 50.3706 70.6755C30.5227 70.6755 15.9353 13.6376 50.3706 13.6376Z" fill="#FFE8BE"/>
<path fill-rule="evenodd" clip-rule="evenodd" d="M29.7167 38.8911C24.7491 41.0568 28.9724 51.3222 32.0986 51.2769C30.8019 47.2604 30.0019 43.1019 29.7167 38.8911Z" fill="#F9DCA4"/>
<path fill-rule="evenodd" clip-rule="evenodd" d="M71.4161 38.8911C76.3838 41.0568 72.1686 51.3222 69.0439 51.2753C70.337 47.2594 71.1337 43.1004 71.4161 38.8911Z" fill="#F9DCA4"/>
<path fill-rule="evenodd" clip-rule="evenodd" d="M71.3968 39.0917C71.3968 39.0917 84.2771 20.031 67.1314 12.6736C64.9848 9.26087 61.8188 6.60927 58.0815 5.09413C54.3441 3.57899 50.2246 3.27703 46.3061 4.23101C36.853 6.15405 33.34 10.8363 33.34 10.8363C33.34 10.8363 24.3918 18.9458 16.4468 19.1124C19.4085 21.195 22.9956 22.1987 26.6086 21.9557C25.5212 24.6729 23.429 33.6169 29.8271 39.5106C36.8951 34.872 42.7915 25.8002 42.7915 25.8002C42.7915 25.8002 44.3805 31.0679 43.1265 33.6606C47.7849 32.7771 52.1737 30.8218 55.9453 27.9496C60.0586 24.6567 62.2447 20.9998 64.5375 20.9529C69.8062 20.8413 71.3547 36.7061 71.3984 39.0933L71.3968 39.0917Z" fill="#ECBE6A"/>
<path fill-rule="evenodd" clip-rule="evenodd" d="M86.4988 84.1385C81.8336 89.1493 76.1844 93.1442 69.9043 95.8734C63.6242 98.6026 56.8483 100.007 50.0003 100C47.9269 99.9998 45.8556 99.8717 43.798 99.6166C37.4878 98.7114 31.383 96.7172 25.7559 93.723C21.0043 91.0772 16.7148 87.6768 13.0552 83.6549L15.1296 78.6411L37.6378 68.594C38.6491 74.6154 50.2689 81.8159 50.2689 81.8159C50.2689 81.8159 61.9404 76.2975 63.3547 68.5358L84.0295 78.6944L86.4988 84.1385Z" fill="#498BD9"/>
<mask id="mask0_2_514" style="mask-type:luminance" maskUnits="userSpaceOnUse" x="13" y="68" width="74" height="32">
<path fill-rule="evenodd" clip-rule="evenodd" d="M86.4988 84.1385C81.8336 89.1493 76.1844 93.1442 69.9043 95.8734C63.6242 98.6026 56.8483 100.007 50.0003 100C47.9269 99.9998 45.8556 99.8717 43.798 99.6166C37.4878 98.7114 31.383 96.7172 25.7559 93.723C21.0043 91.0772 16.7148 87.6768 13.0552 83.6549L15.1296 78.6411L37.6378 68.594C38.6491 74.6154 50.2689 81.8159 50.2689 81.8159C50.2689 81.8159 61.9404 76.2975 63.3547 68.5358L84.0295 78.6944L86.4988 84.1385Z" fill="white"/>
</mask>
<g mask="url(#mask0_2_514)">
<path fill-rule="evenodd" clip-rule="evenodd" d="M22.835 75.2009L33.8609 70.2809L50.3804 92.8884L67.0924 70.3456L76.7186 74.9244V107.325H22.835V75.2009Z" fill="#545F69"/>
<mask id="mask1_2_514" style="mask-type:luminance" maskUnits="userSpaceOnUse" x="22" y="70" width="55" height="38">
<path fill-rule="evenodd" clip-rule="evenodd" d="M22.835 75.2009L33.8609 70.2809L50.3804 92.8884L67.0924 70.3456L76.7186 74.9244V107.325H22.835V75.2009Z" fill="white"/>
</mask>
<g mask="url(#mask1_2_514)">
<path fill-rule="evenodd" clip-rule="evenodd" d="M61.149 69.3542H62.3334V103.937H61.149V69.3542ZM37.2411 69.3542H38.424V103.937H37.2427V69.3542H37.2411ZM32.4175 69.3542H33.6003V103.937H32.4175V69.3542ZM27.6537 69.3542H28.8366V103.937H27.6553L27.6537 69.3542ZM22.8301 69.3542H24.0129V103.937H22.8301V69.3542ZM56.3383 69.3542H57.5211V103.937H56.3383V69.3542ZM51.5146 69.3542H52.6975V103.937H51.5146V69.3542ZM46.7509 69.3542H47.9337V103.937H46.7509V69.3542ZM41.9272 69.3542H43.1101V103.937H41.9272V69.3542ZM75.56 69.3542H76.7445V103.937H75.56V69.3542ZM70.738 69.3542H71.9192V103.937H70.738V69.3542ZM65.9742 69.3542H67.1555V103.937H65.9742V69.3542Z" fill="#434955"/>
</g>
</g>
<path fill-rule="evenodd" clip-rule="evenodd" d="M37.6456 66.7486L50.2702 81.816L40.0679 87.5624L32.2637 70.433L37.6456 66.7486Z" fill="#58B0E0"/>
<path fill-rule="evenodd" clip-rule="evenodd" d="M63.3579 67.0397L50.2705 81.816L60.8175 87.5625L68.5473 70.2259L63.3579 67.0397Z" fill="#58B0E0"/>
<path fill-rule="evenodd" clip-rule="evenodd" d="M35.0115 37.4533H45.3934C45.7298 37.4532 46.0629 37.5194 46.3736 37.6482C46.6843 37.7769 46.9666 37.9657 47.2041 38.2037V38.207C47.4419 38.444 47.6306 38.7256 47.7595 39.0356C47.8883 39.3456 47.9547 39.6779 47.9549 40.0136V44.6926C47.9541 45.3714 47.6839 46.0221 47.2038 46.502C46.7236 46.982 46.0725 47.252 45.3934 47.2529H35.0115C34.6759 47.2523 34.3436 47.1856 34.0337 47.0566C33.7238 46.9275 33.4425 46.7387 33.2057 46.5008H33.2025C32.9646 46.2635 32.7758 45.9817 32.647 45.6714C32.5181 45.3611 32.4518 45.0285 32.4517 44.6926V40.0136C32.4519 39.6779 32.5183 39.3456 32.6471 39.0356C32.776 38.7256 32.9647 38.444 33.2025 38.207L33.2057 38.2037C33.4426 37.9662 33.724 37.7776 34.0339 37.6488C34.3437 37.5201 34.676 37.4536 35.0115 37.4533ZM45.3934 38.828H35.0115C34.6979 38.8287 34.3973 38.9531 34.175 39.1742L34.1733 39.1774C33.9521 39.3996 33.8277 39.7001 33.8271 40.0136V44.6926C33.8271 44.848 33.8579 45.0019 33.9176 45.1454C33.9773 45.2888 34.0648 45.4191 34.175 45.5288C34.397 45.7505 34.6977 45.8755 35.0115 45.8765H45.3934C45.7072 45.8752 46.0077 45.7501 46.2296 45.5283C46.4514 45.3066 46.5766 45.0062 46.5779 44.6926V40.0136C46.5779 39.6995 46.4534 39.3983 46.2316 39.1758C46.1217 39.0655 45.9911 38.978 45.8472 38.9184C45.7034 38.8587 45.5492 38.828 45.3934 38.828Z" fill="#464449"/>
<path fill-rule="evenodd" clip-rule="evenodd" d="M55.9033 37.4533H66.2852C66.6213 37.4534 66.9541 37.5197 67.2645 37.6485C67.5749 37.7773 67.8569 37.9659 68.0943 38.2037V38.207C68.3324 38.4439 68.5214 38.7254 68.6505 39.0354C68.7796 39.3454 68.8463 39.6778 68.8467 40.0136V44.6926C68.8458 45.3714 68.5757 46.0221 68.0955 46.502C67.6153 46.982 66.9643 47.252 66.2852 47.2529H55.9033C55.5674 47.2524 55.2348 47.1857 54.9247 47.0566C54.6146 46.9276 54.3329 46.7387 54.0958 46.5008L54.0942 46.4976C53.6139 46.0194 53.3433 45.3702 53.3418 44.6926V40.0136C53.3423 39.6778 53.409 39.3454 53.5381 39.0354C53.6672 38.7254 53.8562 38.4439 54.0942 38.207L54.0975 38.2054C54.5758 37.7253 55.2254 37.4548 55.9033 37.4533ZM66.2852 38.828H55.9033C55.7479 38.8279 55.5941 38.8584 55.4505 38.9178C55.307 38.9772 55.1765 39.0643 55.0667 39.1742L55.0651 39.1774C54.9551 39.2871 54.8679 39.4175 54.8085 39.5609C54.7491 39.7044 54.7186 39.8583 54.7188 40.0136V44.6926C54.7187 44.8479 54.7492 45.0017 54.8086 45.1452C54.868 45.2886 54.9552 45.419 55.0651 45.5288L55.0667 45.5304C55.1765 45.6402 55.307 45.7274 55.4505 45.7867C55.5941 45.8461 55.7479 45.8766 55.9033 45.8765H66.2852C66.599 45.8752 66.8995 45.7501 67.1213 45.5283C67.3432 45.3066 67.4684 45.0062 67.4697 44.6926V40.0136C67.4697 39.6995 67.3451 39.3983 67.1234 39.1758C67.0137 39.0657 66.8817 38.9783 66.7381 38.9187C66.5946 38.859 66.4407 38.8282 66.2852 38.828Z" fill="#464449"/>
<path d="M47.5972 39.6351H53.8189V41.0519H47.5972V39.6351Z" fill="#464449"/>
</svg>
